<?xml version="1.0" encoding="utf-8"?>
<!-- Generator: Adobe Illustrator 24.3.0, SVG Export Plug-In . SVG Version: 6.00 Build 0)  -->
<svg version="1.1" id="Layer_1" xmlns="http://www.w3.org/2000/svg" xmlns:xlink="http://www.w3.org/1999/xlink" x="0px" y="0px"
	 viewBox="0 0 800 130" style="enable-background:new 0 0 800 130;" xml:space="preserve">
<style type="text/css">
	.st0{fill:#AEFCE2;}
	.st1{fill:#5076FF;}
</style>
<g>
	<path class="st0" d="M80.8,100.4c-18.1,0-33.7-14.7-33.7-33.6c0-17.3,13.6-33.7,33.5-33.7c5.7,0,16.1,1.3,16.1,7
		c0,3.5-3.8,6.1-6.8,4.6c-2.9-1.2-6.1-1.8-9.2-1.8c-14.6,0-23.8,12-23.8,24.4c0,13,11.5,23.2,23.9,23.2c3.1,0,6.2-0.6,9.1-1.8
		c3-1.3,6.8,0.8,6.8,4.5C96.6,99.2,86.1,100.4,80.8,100.4z"/>
	<path class="st0" d="M139.5,100.3c-17.4,0-32.5-15.5-32.5-33.8c0-17.3,15.2-33.5,32.5-33.5c17.5,0,32.6,16.2,32.6,33.7
		C172,84.8,156.8,100.3,139.5,100.3z M116.8,66.7c0,12.2,10.3,23.8,22.6,23.8c12.3,0,22.7-11.5,22.7-23.8
		c0-12.4-10.4-23.9-22.7-23.9C127.2,42.8,116.8,54.4,116.8,66.7z"/>
	<path class="st0" d="M223.5,95.4c-2-7.1-14.7-18.6-19.3-23.3c-1.2-1.3-3.6-3.1-3.6-6.2c0-3.5,2.6-5.5,5.4-5.3
		c2.3,0.3,4.8,1.2,7.5,1.2c4.9,0,8.6-3.9,8.6-8.5c0-5-3.2-8.6-12.7-8.6c-13.8,0-13.1,6.7-13.1,10.2c0,18,3.8,37.3,4,38
		c0.1,0.3,0.1,0.6,0.1,0.8c0,2.7-2.2,5.1-5,5.1c-2.3,0-4.3-1.6-4.8-3.9c-0.1-0.2-4.2-19.8-4.2-40c0-9.7,4.5-20.1,22.9-20.1
		c12.8,0,22.5,6.5,22.5,18.5c0,8.7-6.1,16.2-14.6,18c5.9,5.5,12.7,13.1,15.5,21.1c0.2,0.5,0.2,0.9,0.2,1.4c0,2.6-1.9,5-4.9,5
		C226.1,98.9,224.1,97.5,223.5,95.4z"/>
	<path class="st0" d="M243.5,66.8c0-18.3,16.5-33.7,35.6-33.7c8.7,0,17,5.2,17,14.6c0,7.5-6.4,12.2-6.4,19.2
		c0,7.2,6.4,12.2,6.4,19.6c0,8.5-8.3,14.1-17,14.1C260.6,100.5,243.5,85.8,243.5,66.8z M253.4,66.8c0,13,11.8,23.9,25.7,23.9
		c5.4,0,7.1-2.9,7.1-4.2c0-5.4-6.4-13-6.4-19.6c0-5.9,6.4-13.3,6.4-19.5c0-2.1-2.7-4.3-7.1-4.3C265.1,42.9,253.4,53.9,253.4,66.8z"
		/>
	<path class="st0" d="M372.1,87.3c0,6.3-5.1,11.6-11.5,11.6s-11.6-5.2-11.6-11.6v-5.7c0-0.7-0.5-0.8-0.8-0.8h-0.1
		c-5.9,0-10.6-4.8-10.6-10.7v-6.6c0-0.4-0.3-0.7-0.8-0.8c-5.9,0-10.7-4.8-10.7-10.6v-5.7c0.1-0.7-0.6-1.7-1.6-1.7
		c-0.9,0-1.7,0.8-1.7,1.7v47.6c0,2.7-2.2,5-4.9,5c-2.7,0-5-2.3-5-5V46.2c0-6.3,5.1-11.6,11.6-11.6c6.4,0,11.5,5.3,11.5,11.6V52
		c0,0.4,0.4,0.8,0.8,0.8c5.9,0,10.7,4.9,10.7,10.8V70c0,0.6,0.3,0.8,0.8,0.8c6.1,0,10.6,4.9,10.6,10.7v5.7c0,0.9,0.8,1.7,1.7,1.7
		c1,0,1.6-0.8,1.6-1.7V39.6c0-2.6,2.3-4.9,5-4.9c2.7,0,4.9,2.3,4.9,4.9V87.3z"/>
	<path class="st0" d="M460.3,98.9c-1.3,0-2.6-0.6-3.7-1.6l-11.8-12.6c-0.2,0-0.5,0-32.9,0c-2.2,7.3-10.9,14.1-20.3,14.1
		c-2.7,0-5-2.2-5-4.9c0-2.7,2.3-5,5-5c7,0,14.4-7.5,10.7-15.5c-6-12.9-11.8-23.3-11.8-27c0-6.8,5.8-11.7,12.3-11.7
		c6.9,0,12.1,3.6,19.1,11.1l42,44.7C467.1,93.7,464.3,98.9,460.3,98.9z M435.6,74.9l-20.8-22.3c-6.5-6.9-9.1-8-11.9-8
		c-1.7,0-2.9,1.3-2.3,2.5l10.6,22c0.8,1.8,1.5,3.8,1.7,5.7H435.6z"/>
	<path class="st0" d="M558.7,91.2c2.4,3.1,0.2,7.8-3.9,7.8c-5.7,0-9.4-11.6-9.4-18.5c0-3,0.5-5.9,1.4-8.6H518
		c-1.9,3.3-2.9,7-2.9,11.1c0,5,1.5,9.6,4.2,13.1c2.4,3.1,0.1,7.9-3.9,7.9c-6.2,0-10.1-13.6-10.1-21c0-7,2.3-13.6,6.2-18.9
		c2.7-3.8,4.2-8.3,4.2-13.1s-1.6-9.4-4.2-13.1c-2.2-3.1-0.3-7.9,3.9-7.9c6.2,0,10.1,13.5,10.1,20.9c0,3.9-0.7,7.7-2,11.1H552
		c1.4-2.5,2.3-5.4,2.3-8.6c0-3.9-1.2-7.6-3.5-10.6c-2.3-3.1-0.1-7.8,3.9-7.8c5.8,0,9.4,11.6,9.4,18.4c0,6.2-2.1,11.9-5.4,16.5
		c-2.2,3-3.5,6.7-3.5,10.6C555.2,84.5,556.5,88.2,558.7,91.2z"/>
	<path class="st0" d="M606.8,100.5c-15.2,0-27.6-12.4-27.6-27.7c0-18,13.5-35.7,13.7-36.1c0.8-1.4,2.4-2,3.9-2c2.8,0,5,2.3,5,4.9
		c0,2.8-7.2,10.5-11,22.8c-1,3.5-1.8,7-1.8,10.3c0,10,8.2,17.8,17.7,17.8c12.9,0,20.5-10.2,17-21.1c-2-6.8-2.5-12.5-2.5-17.2
		c0-9.4,2.6-14.5,3-15c1-1.7,2.5-2.5,4.2-2.5c2.9,0,5,2.4,5,5c0,3.2-2.3,4.5-2.3,12.6c0,3.8,0.5,8.5,2.2,14.6
		C638.2,84.4,625.8,100.5,606.8,100.5z"/>
	<path class="st0" d="M702.7,81.7c0,9.5-7.7,17.1-17.1,17.1c-9.4,0-17.1-7.7-17.1-17.1c0-1.5,0.2-3,0.6-4.4l6.3-23.7
		c0.2-0.6,0.3-1.2,0.3-1.9c0-3.9-3.3-7.1-7.2-7.1c-3.9,0-7.2,3.2-7.2,7.1v42.1c0,2.7-2.2,5-4.9,5s-5-2.3-5-5c0-42.1,0-42.1,0-42.1
		c0-9.5,7.7-17,17.1-17c9.4,0,17.1,7.5,17.1,17c0,1.5-0.2,3-0.6,4.4c-6.3,23.7-6.3,23.7-6.3,23.7c-0.2,0.6-0.3,1.2-0.3,1.9
		c0,3.8,3.4,7.2,7.2,7.2c3.9,0,7.1-3.3,7.2-7.2V39.7c0-2.7,2.2-4.9,4.9-4.9c2.7,0,5,2.2,5,4.9C702.7,81.7,702.7,81.7,702.7,81.7z"/>
	<path class="st0" d="M763.1,41.2c-6.1,4.9-10.1,6.8-14.7,6.8c-2.3,0-4.4-0.5-6.5-1.2c-5.9,14.4-5.2,31.2,2.2,45
		c1.8,3.1-0.8,7.1-4.4,7.1c-1.8,0-3.6-1-4.4-2.7c-8.5-16.7-9.7-37.2-2-54.5c-4-1.9-8,3-11.1,3c-2.5,0-5-2.2-5-5
		c0-4.8,8-8.2,13.4-8.2c4.7,0,8.6,1.6,12.2,4.4c5.1,3.9,7.8,2.7,13.9-2.3c2.3-1.8,5-1.5,6.9,0.7C765.6,36.3,765.3,39.4,763.1,41.2z"
		/>
</g>
<g>
	<path class="st1" d="M74.8,98.4c-18.1,0-33.7-14.7-33.7-33.6c0-17.3,13.6-33.7,33.5-33.7c5.7,0,16.1,1.3,16.1,7
		c0,3.5-3.8,6.1-6.8,4.6C81,41.5,77.8,41,74.7,41c-14.6,0-23.8,12-23.8,24.4c0,13,11.5,23.2,23.9,23.2c3.1,0,6.2-0.6,9.1-1.8
		c3-1.3,6.8,0.8,6.8,4.5C90.6,97.2,80.1,98.4,74.8,98.4z"/>
	<path class="st1" d="M133.5,98.3c-17.4,0-32.5-15.5-32.5-33.8c0-17.3,15.2-33.5,32.5-33.5c17.5,0,32.6,16.2,32.6,33.7
		C166,82.8,150.8,98.3,133.5,98.3z M110.8,64.7c0,12.2,10.3,23.8,22.6,23.8c12.3,0,22.7-11.5,22.7-23.8c0-12.4-10.4-23.9-22.7-23.9
		C121.2,40.9,110.8,52.4,110.8,64.7z"/>
	<path class="st1" d="M217.5,93.5c-2-7.1-14.7-18.6-19.3-23.3c-1.2-1.3-3.6-3.1-3.6-6.2c0-3.5,2.6-5.5,5.4-5.3
		c2.3,0.3,4.8,1.2,7.5,1.2c4.9,0,8.6-3.9,8.6-8.5c0-5-3.2-8.6-12.7-8.6c-13.8,0-13.1,6.7-13.1,10.2c0,18,3.8,37.3,4,38
		c0.1,0.3,0.1,0.6,0.1,0.8c0,2.7-2.2,5.1-5,5.1c-2.3,0-4.3-1.6-4.8-3.9c-0.1-0.2-4.2-19.8-4.2-40c0-9.7,4.5-20.1,22.9-20.1
		c12.8,0,22.5,6.5,22.5,18.5c0,8.7-6.1,16.2-14.6,18c5.9,5.5,12.7,13.1,15.5,21.1c0.2,0.5,0.2,0.9,0.2,1.4c0,2.6-1.9,5-4.9,5
		C220.1,96.9,218.1,95.5,217.5,93.5z"/>
	<path class="st1" d="M237.5,64.8c0-18.3,16.5-33.7,35.6-33.7c8.7,0,17,5.2,17,14.6c0,7.5-6.4,12.2-6.4,19.2
		c0,7.2,6.4,12.2,6.4,19.6c0,8.5-8.3,14.1-17,14.1C254.6,98.5,237.5,83.8,237.5,64.8z M247.4,64.8c0,13,11.8,23.9,25.7,23.9
		c5.4,0,7.1-2.9,7.1-4.2c0-5.4-6.4-13-6.4-19.6c0-5.9,6.4-13.3,6.4-19.5c0-2.1-2.7-4.3-7.1-4.3C259.1,41,247.4,51.9,247.4,64.8z"/>
	<path class="st1" d="M366.1,85.3c0,6.3-5.1,11.6-11.5,11.6s-11.6-5.2-11.6-11.6v-5.7c0-0.7-0.5-0.8-0.8-0.8h-0.1
		c-5.9,0-10.6-4.8-10.6-10.7v-6.6c0-0.4-0.3-0.7-0.8-0.8c-5.9,0-10.7-4.8-10.7-10.6v-5.7c0.1-0.7-0.6-1.7-1.6-1.7
		c-0.9,0-1.7,0.8-1.7,1.7v47.6c0,2.7-2.2,5-4.9,5c-2.7,0-5-2.3-5-5V44.2c0-6.3,5.1-11.6,11.6-11.6c6.4,0,11.5,5.3,11.5,11.6V50
		c0,0.4,0.4,0.8,0.8,0.8c5.9,0,10.7,4.9,10.7,10.8V68c0,0.6,0.3,0.8,0.8,0.8c6.1,0,10.6,4.9,10.6,10.7v5.7c0,0.9,0.8,1.7,1.7,1.7
		c1,0,1.6-0.8,1.6-1.7V37.6c0-2.6,2.3-4.9,5-4.9c2.7,0,4.9,2.3,4.9,4.9V85.3z"/>
	<path class="st1" d="M454.3,96.9c-1.3,0-2.6-0.6-3.7-1.6l-11.8-12.6c-0.2,0-0.5,0-32.9,0c-2.2,7.3-10.9,14.1-20.3,14.1
		c-2.7,0-5-2.2-5-4.9c0-2.7,2.3-5,5-5c7,0,14.4-7.5,10.7-15.5c-6-12.9-11.8-23.3-11.8-27c0-6.8,5.8-11.7,12.3-11.7
		c6.9,0,12.1,3.6,19.1,11.1l42,44.7C461.1,91.7,458.3,96.9,454.3,96.9z M429.6,72.9l-20.8-22.3c-6.5-6.9-9.1-8-11.9-8
		c-1.7,0-2.9,1.3-2.3,2.5l10.6,22c0.8,1.8,1.5,3.8,1.7,5.7H429.6z"/>
	<path class="st1" d="M552.7,89.2c2.4,3.1,0.2,7.8-3.9,7.8c-5.7,0-9.4-11.6-9.4-18.5c0-3,0.5-5.9,1.4-8.6H512
		c-1.9,3.3-2.9,7-2.9,11.1c0,5,1.5,9.6,4.2,13.1c2.4,3.1,0.1,7.9-3.9,7.9c-6.2,0-10.1-13.6-10.1-21c0-7,2.3-13.6,6.2-18.9
		c2.7-3.8,4.2-8.3,4.2-13.1s-1.6-9.4-4.2-13.1c-2.2-3.1-0.3-7.9,3.9-7.9c6.2,0,10.1,13.5,10.1,20.9c0,3.9-0.7,7.7-2,11.1H546
		c1.4-2.5,2.3-5.4,2.3-8.6c0-3.9-1.2-7.6-3.5-10.6c-2.3-3.1-0.1-7.8,3.9-7.8c5.8,0,9.4,11.6,9.4,18.4c0,6.2-2.1,11.9-5.4,16.5
		c-2.2,3-3.5,6.7-3.5,10.6C549.2,82.6,550.5,86.2,552.7,89.2z"/>
	<path class="st1" d="M600.8,98.5c-15.2,0-27.6-12.4-27.6-27.7c0-18,13.5-35.7,13.7-36.1c0.8-1.4,2.4-2,3.9-2c2.8,0,5,2.3,5,4.9
		c0,2.8-7.2,10.5-11,22.8c-1,3.5-1.8,7-1.8,10.3c0,10,8.2,17.8,17.7,17.8c12.9,0,20.5-10.2,17-21.1c-2-6.8-2.5-12.5-2.5-17.2
		c0-9.4,2.6-14.5,3-15c1-1.7,2.5-2.5,4.2-2.5c2.9,0,5,2.4,5,5c0,3.2-2.3,4.5-2.3,12.6c0,3.8,0.5,8.5,2.2,14.6
		C632.2,82.4,619.8,98.5,600.8,98.5z"/>
	<path class="st1" d="M696.7,79.7c0,9.5-7.7,17.1-17.1,17.1c-9.4,0-17.1-7.7-17.1-17.1c0-1.5,0.2-3,0.6-4.4l6.3-23.7
		c0.2-0.6,0.3-1.2,0.3-1.9c0-3.9-3.3-7.1-7.2-7.1c-3.9,0-7.2,3.2-7.2,7.1v42.1c0,2.7-2.2,5-4.9,5s-5-2.3-5-5c0-42.1,0-42.1,0-42.1
		c0-9.5,7.7-17,17.1-17c9.4,0,17.1,7.5,17.1,17c0,1.5-0.2,3-0.6,4.4c-6.3,23.7-6.3,23.7-6.3,23.7c-0.2,0.6-0.3,1.2-0.3,1.9
		c0,3.8,3.4,7.2,7.2,7.2c3.9,0,7.1-3.3,7.2-7.2V37.7c0-2.7,2.2-4.9,4.9-4.9c2.7,0,5,2.2,5,4.9C696.7,79.7,696.7,79.7,696.7,79.7z"/>
	<path class="st1" d="M757.1,39.2c-6.1,4.9-10.1,6.8-14.7,6.8c-2.3,0-4.4-0.5-6.5-1.2c-5.9,14.4-5.2,31.2,2.2,45
		c1.8,3.1-0.8,7.1-4.4,7.1c-1.8,0-3.6-1-4.4-2.7c-8.5-16.7-9.7-37.2-2-54.5c-4-1.9-8,3-11.1,3c-2.5,0-5-2.2-5-5
		c0-4.8,8-8.2,13.4-8.2c4.7,0,8.6,1.6,12.2,4.4c5.1,3.9,7.8,2.7,13.9-2.3c2.3-1.8,5-1.5,6.9,0.7C759.6,34.3,759.3,37.4,757.1,39.2z"
		/>
</g>
</svg>
